<?xml version="1.0" encoding="UTF-8" standalone="no"?>
<svg
   xmlns:dc="http://purl.org/dc/elements/1.1/"
   xmlns:cc="http://creativecommons.org/ns#"
   xmlns:rdf="http://www.w3.org/1999/02/22-rdf-syntax-ns#"
   xmlns:svg="http://www.w3.org/2000/svg"
   xmlns="http://www.w3.org/2000/svg"
   id="svg8"
   version="1.1"
   viewBox="0 0 10 10"
   height="10mm"
   width="10mm">
  <g
     transform="translate(-37.861119,-72.489433)"
     id="layer1">
    <path
       d="m 43.459077,81.548142 q -0.518583,0 -0.804333,-0.243417 -0.275167,-0.243417 -0.275167,-0.635 0,-0.232833 0.116417,-0.518583 0.296333,0.381 0.709083,0.381 0.529167,0 0.783167,-0.560917 0.264583,-0.5715 0.264583,-1.291166 0,-1.30175 -1.005416,-1.30175 -0.28575,0 -0.508,0.105833 l -0.836084,3.884083 h -1.524 l 1.524,-7.069666 q -0.66675,0.02117 -1.026583,0.508 -0.34925,0.486833 -0.34925,1.68275 0,0.391583 0.07408,0.550333 0.07408,0.148167 0.07408,0.169333 -0.5715,0 -0.85725,-0.232833 -0.275167,-0.243417 -0.275167,-0.79375 0,-0.751417 0.370417,-1.36525 0.370416,-0.624417 1.17475,-1.005417 0.814916,-0.381 2.06375,-0.381 0.243416,0 0.751416,0.05292 0.963083,0.07408 1.322917,0.07408 0.560916,0 0.9525,-0.127 -0.01058,0.05292 -0.07408,0.423334 -0.0635,0.370416 -0.306916,0.613833 -0.232834,0.232833 -0.624417,0.232833 -0.772583,0 -1.788583,-0.211666 l -0.529167,2.455333 q 0.624417,-0.1905 1.0795,-0.1905 0.889,0 1.3335,0.53975 0.455083,0.529167 0.455083,1.418167 0,0.582083 -0.254,1.248833 -0.243416,0.656166 -0.751416,1.121833 -0.508,0.465667 -1.259417,0.465667 z"
       style="font-style:normal;font-variant:normal;font-weight:normal;font-stretch:normal;font-size:10.58333302px;line-height:1.25;font-family:Lobster;-inkscape-font-specification:'Lobster, Normal';font-variant-ligatures:normal;font-variant-caps:normal;font-variant-numeric:normal;font-feature-settings:normal;text-align:start;letter-spacing:0px;word-spacing:0px;writing-mode:lr-tb;text-anchor:start;fill:#ff0000;fill-opacity:1;stroke:none;stroke-width:0.26458332"
       id="path3763" />
  </g>
</svg>
